<svg width="2328" height="1362" xmlns="http://www.w3.org/2000/svg" xmlns:xlink="http://www.w3.org/1999/xlink" overflow="hidden"><defs><clipPath id="clip0"><rect x="1682" y="132" width="2328" height="1362"/></clipPath><clipPath id="clip1"><rect x="1687" y="138" width="2321" height="1350"/></clipPath><clipPath id="clip2"><rect x="1838" y="188" width="1846" height="1059"/></clipPath><clipPath id="clip3"><rect x="1838" y="188" width="1846" height="1059"/></clipPath><clipPath id="clip4"><rect x="1838" y="188" width="1846" height="1059"/></clipPath><clipPath id="clip5"><rect x="1838" y="188" width="1846" height="1059"/></clipPath><clipPath id="clip6"><rect x="1687" y="138" width="2321" height="1350"/></clipPath><clipPath id="clip7"><rect x="1687" y="138" width="2321" height="1350"/></clipPath><clipPath id="clip8"><rect x="1687" y="138" width="2321" height="1350"/></clipPath><clipPath id="clip9"><rect x="1687" y="138" width="2321" height="1350"/></clipPath><clipPath id="clip10"><rect x="1687" y="138" width="2321" height="1350"/></clipPath><clipPath id="clip11"><rect x="1687" y="138" width="2321" height="1350"/></clipPath><clipPath id="clip12"><rect x="1687" y="138" width="2321" height="1350"/></clipPath><clipPath id="clip13"><rect x="1687" y="138" width="2321" height="1350"/></clipPath><clipPath id="clip14"><rect x="1687" y="138" width="2321" height="1350"/></clipPath><clipPath id="clip15"><rect x="1687" y="138" width="2321" height="1350"/></clipPath><clipPath id="clip16"><rect x="1687" y="138" width="2321" height="1350"/></clipPath><clipPath id="clip17"><rect x="1687" y="138" width="2321" height="1350"/></clipPath><clipPath id="clip18"><rect x="1687" y="138" width="2321" height="1350"/></clipPath><clipPath id="clip19"><rect x="1687" y="138" width="2321" height="1350"/></clipPath><clipPath id="clip20"><rect x="1687" y="138" width="2321" height="1350"/></clipPath><clipPath id="clip21"><rect x="1687" y="138" width="2321" height="1350"/></clipPath><clipPath id="clip22"><rect x="1687" y="138" width="2321" height="1350"/></clipPath><clipPath id="clip23"><rect x="1687" y="138" width="2321" height="1350"/></clipPath><clipPath id="clip24"><rect x="1687" y="138" width="2321" height="1350"/></clipPath><clipPath id="clip25"><rect x="1687" y="138" width="2321" height="1350"/></clipPath><clipPath id="clip26"><rect x="1687" y="138" width="2321" height="1350"/></clipPath><clipPath id="clip27"><rect x="1687" y="138" width="2321" height="1350"/></clipPath><clipPath id="clip28"><rect x="1687" y="138" width="2321" height="1350"/></clipPath><clipPath id="clip29"><rect x="1687" y="138" width="2321" height="1350"/></clipPath><clipPath id="clip30"><rect x="1687" y="138" width="2321" height="1350"/></clipPath><clipPath id="clip31"><rect x="1687" y="138" width="2321" height="1350"/></clipPath><clipPath id="clip32"><rect x="1687" y="138" width="2321" height="1350"/></clipPath><clipPath id="clip33"><rect x="1687" y="138" width="2321" height="1350"/></clipPath><clipPath id="clip34"><rect x="1687" y="138" width="2321" height="1350"/></clipPath><clipPath id="clip35"><rect x="1687" y="138" width="2321" height="1350"/></clipPath></defs><g clip-path="url(#clip0)" transform="translate(-1682 -132)"><rect x="1687" y="138" width="2321" height="1351" fill="#FFFFFF" fill-opacity="1"/><g clip-path="url(#clip1)"><path d="M1838.5 1138.54 3681.5 1138.54M1838.5 1033.53 3681.5 1033.53M1838.5 927.531 3681.5 927.531M1838.5 822.527 3681.5 822.527M1838.5 716.524 3681.5 716.524M1838.5 611.52 3681.5 611.52M1838.5 505.517 3681.5 505.517M1838.5 399.513 3681.5 399.513M1838.5 294.51 3681.5 294.51M1838.5 188.5 3681.5 188.5" stroke="#D9D9D9" stroke-width="3.4375" stroke-linecap="butt" stroke-linejoin="round" stroke-miterlimit="10" stroke-opacity="1" fill="none" fill-rule="nonzero"/></g><g clip-path="url(#clip2)"><path d="M1909.06 1212.04 1973.06 1212.04 1973.06 1244 1909.06 1244ZM2114.07 1229.04 2178.07 1229.04 2178.07 1244 2114.07 1244ZM2523.08 1220.04 2588.08 1220.04 2588.08 1244 2523.08 1244ZM2728.09 1224.04 2792.09 1224.04 2792.09 1244 2728.09 1244ZM3138.1 1221.04 3202.11 1221.04 3202.11 1244 3138.1 1244ZM3342.11 1117.04 3406.11 1117.04 3406.11 1244 3342.11 1244ZM3547.12 1217.04 3611.12 1217.04 3611.12 1244 3547.12 1244Z" fill="#4472C4" fill-rule="nonzero" fill-opacity="1"/></g><g clip-path="url(#clip3)"><path d="M1909.06 1074.04 1973.06 1074.04 1973.06 1212.04 1909.06 1212.04ZM2114.07 1107.04 2178.07 1107.04 2178.07 1229.04 2114.07 1229.04ZM2319.08 1143.04 2383.08 1143.04 2383.08 1244 2319.08 1244ZM2728.09 1108.04 2792.09 1108.04 2792.09 1224.04 2728.09 1224.04ZM2933.1 1168.04 2997.1 1168.04 2997.1 1244 2933.1 1244ZM3138.1 1129.04 3202.11 1129.04 3202.11 1221.04 3138.1 1221.04ZM3342.11 971.032 3406.11 971.032 3406.11 1117.04 3342.11 1117.04ZM3547.12 849.028 3611.12 849.028 3611.12 1217.04 3547.12 1217.04Z" fill="#ED7D31" fill-rule="nonzero" fill-opacity="1"/></g><g clip-path="url(#clip4)"><path d="M2114.07 1103.04 2178.07 1103.04 2178.07 1107.04 2114.07 1107.04ZM2728.09 1090.04 2792.09 1090.04 2792.09 1108.04 2728.09 1108.04ZM3547.12 836.027 3611.12 836.027 3611.12 849.028 3547.12 849.028Z" fill="#A5A5A5" fill-rule="nonzero" fill-opacity="1"/></g><g clip-path="url(#clip5)"><path d="M1909.06 799.026 1973.06 799.026 1973.06 1074.04 1909.06 1074.04ZM2114.07 1067.04 2178.07 1067.04 2178.07 1103.04 2114.07 1103.04ZM2319.08 1088.04 2383.08 1088.04 2383.08 1143.04 2319.08 1143.04ZM2728.09 573.019 2792.09 573.019 2792.09 1090.04 2728.09 1090.04ZM2933.1 1103.04 2997.1 1103.04 2997.1 1168.04 2933.1 1168.04ZM3138.1 1056.03 3202.11 1056.03 3202.11 1129.04 3138.1 1129.04ZM3342.11 804.026 3406.11 804.026 3406.11 971.032 3342.11 971.032ZM3547.12 282.009 3611.12 282.009 3611.12 836.027 3547.12 836.027Z" fill="#FFC000" fill-rule="nonzero" fill-opacity="1"/></g><g clip-path="url(#clip6)"><path d="M1838.5 1244.5 3681.5 1244.5" stroke="#D9D9D9" stroke-width="3.4375" stroke-linecap="butt" stroke-linejoin="round" stroke-miterlimit="10" stroke-opacity="1" fill="none" fill-rule="evenodd"/></g><g clip-path="url(#clip7)"><text fill="#595959" fill-opacity="1" font-family="Calibri,Calibri_MSFontService,sans-serif" font-style="normal" font-variant="normal" font-weight="400" font-stretch="normal" font-size="41" text-anchor="start" direction="ltr" writing-mode="lr-tb" unicode-bidi="normal" text-decoration="none" transform="matrix(1 0 0 1 1779.83 1254)">0</text></g><g clip-path="url(#clip8)"><text fill="#595959" fill-opacity="1" font-family="Calibri,Calibri_MSFontService,sans-serif" font-style="normal" font-variant="normal" font-weight="400" font-stretch="normal" font-size="41" text-anchor="start" direction="ltr" writing-mode="lr-tb" unicode-bidi="normal" text-decoration="none" transform="matrix(1 0 0 1 1738.03 1149)">100</text></g><g clip-path="url(#clip9)"><text fill="#595959" fill-opacity="1" font-family="Calibri,Calibri_MSFontService,sans-serif" font-style="normal" font-variant="normal" font-weight="400" font-stretch="normal" font-size="41" text-anchor="start" direction="ltr" writing-mode="lr-tb" unicode-bidi="normal" text-decoration="none" transform="matrix(1 0 0 1 1738.03 1043)">200</text></g><g clip-path="url(#clip10)"><text fill="#595959" fill-opacity="1" font-family="Calibri,Calibri_MSFontService,sans-serif" font-style="normal" font-variant="normal" font-weight="400" font-stretch="normal" font-size="41" text-anchor="start" direction="ltr" writing-mode="lr-tb" unicode-bidi="normal" text-decoration="none" transform="matrix(1 0 0 1 1738.03 938)">300</text></g><g clip-path="url(#clip11)"><text fill="#595959" fill-opacity="1" font-family="Calibri,Calibri_MSFontService,sans-serif" font-style="normal" font-variant="normal" font-weight="400" font-stretch="normal" font-size="41" text-anchor="start" direction="ltr" writing-mode="lr-tb" unicode-bidi="normal" text-decoration="none" transform="matrix(1 0 0 1 1738.03 832)">400</text></g><g clip-path="url(#clip12)"><text fill="#595959" fill-opacity="1" font-family="Calibri,Calibri_MSFontService,sans-serif" font-style="normal" font-variant="normal" font-weight="400" font-stretch="normal" font-size="41" text-anchor="start" direction="ltr" writing-mode="lr-tb" unicode-bidi="normal" text-decoration="none" transform="matrix(1 0 0 1 1738.03 727)">500</text></g><g clip-path="url(#clip13)"><text fill="#595959" fill-opacity="1" font-family="Calibri,Calibri_MSFontService,sans-serif" font-style="normal" font-variant="normal" font-weight="400" font-stretch="normal" font-size="41" text-anchor="start" direction="ltr" writing-mode="lr-tb" unicode-bidi="normal" text-decoration="none" transform="matrix(1 0 0 1 1738.03 621)">600</text></g><g clip-path="url(#clip14)"><text fill="#595959" fill-opacity="1" font-family="Calibri,Calibri_MSFontService,sans-serif" font-style="normal" font-variant="normal" font-weight="400" font-stretch="normal" font-size="41" text-anchor="start" direction="ltr" writing-mode="lr-tb" unicode-bidi="normal" text-decoration="none" transform="matrix(1 0 0 1 1738.03 516)">700</text></g><g clip-path="url(#clip15)"><text fill="#595959" fill-opacity="1" font-family="Calibri,Calibri_MSFontService,sans-serif" font-style="normal" font-variant="normal" font-weight="400" font-stretch="normal" font-size="41" text-anchor="start" direction="ltr" writing-mode="lr-tb" unicode-bidi="normal" text-decoration="none" transform="matrix(1 0 0 1 1738.03 410)">800</text></g><g clip-path="url(#clip16)"><text fill="#595959" fill-opacity="1" font-family="Calibri,Calibri_MSFontService,sans-serif" font-style="normal" font-variant="normal" font-weight="400" font-stretch="normal" font-size="41" text-anchor="start" direction="ltr" writing-mode="lr-tb" unicode-bidi="normal" text-decoration="none" transform="matrix(1 0 0 1 1738.03 304)">900</text></g><g clip-path="url(#clip17)"><text fill="#595959" fill-opacity="1" font-family="Calibri,Calibri_MSFontService,sans-serif" font-style="normal" font-variant="normal" font-weight="400" font-stretch="normal" font-size="41" text-anchor="start" direction="ltr" writing-mode="lr-tb" unicode-bidi="normal" text-decoration="none" transform="matrix(1 0 0 1 1717.13 199)">1000</text></g><g clip-path="url(#clip18)"><text fill="#595959" fill-opacity="1" font-family="Calibri,Calibri_MSFontService,sans-serif" font-style="normal" font-variant="normal" font-weight="400" font-stretch="normal" font-size="41" text-anchor="start" direction="ltr" writing-mode="lr-tb" unicode-bidi="normal" text-decoration="none" transform="matrix(0.707107 -0.707107 0.707107 0.707107 1807.37 1442)">film &amp; video</text></g><g clip-path="url(#clip19)"><text fill="#595959" fill-opacity="1" font-family="Calibri,Calibri_MSFontService,sans-serif" font-style="normal" font-variant="normal" font-weight="400" font-stretch="normal" font-size="41" text-anchor="start" direction="ltr" writing-mode="lr-tb" unicode-bidi="normal" text-decoration="none" transform="matrix(0.707107 -0.707107 0.707107 0.707107 2100.88 1353)">food</text></g><g clip-path="url(#clip20)"><text fill="#595959" fill-opacity="1" font-family="Calibri,Calibri_MSFontService,sans-serif" font-style="normal" font-variant="normal" font-weight="400" font-stretch="normal" font-size="41" text-anchor="start" direction="ltr" writing-mode="lr-tb" unicode-bidi="normal" text-decoration="none" transform="matrix(0.707107 -0.707107 0.707107 0.707107 2283.67 1375)">games</text></g><g clip-path="url(#clip21)"><text fill="#595959" fill-opacity="1" font-family="Calibri,Calibri_MSFontService,sans-serif" font-style="normal" font-variant="normal" font-weight="400" font-stretch="normal" font-size="41" text-anchor="start" direction="ltr" writing-mode="lr-tb" unicode-bidi="normal" text-decoration="none" transform="matrix(0.707107 -0.707107 0.707107 0.707107 2440.06 1423)">journalism</text></g><g clip-path="url(#clip22)"><text fill="#595959" fill-opacity="1" font-family="Calibri,Calibri_MSFontService,sans-serif" font-style="normal" font-variant="normal" font-weight="400" font-stretch="normal" font-size="41" text-anchor="start" direction="ltr" writing-mode="lr-tb" unicode-bidi="normal" text-decoration="none" transform="matrix(0.707107 -0.707107 0.707107 0.707107 2700.99 1367)">music</text></g><g clip-path="url(#clip23)"><text fill="#595959" fill-opacity="1" font-family="Calibri,Calibri_MSFontService,sans-serif" font-style="normal" font-variant="normal" font-weight="400" font-stretch="normal" font-size="41" text-anchor="start" direction="ltr" writing-mode="lr-tb" unicode-bidi="normal" text-decoration="none" transform="matrix(0.707107 -0.707107 0.707107 0.707107 2821.86 1451)">photography</text></g><g clip-path="url(#clip24)"><text fill="#595959" fill-opacity="1" font-family="Calibri,Calibri_MSFontService,sans-serif" font-style="normal" font-variant="normal" font-weight="400" font-stretch="normal" font-size="41" text-anchor="start" direction="ltr" writing-mode="lr-tb" unicode-bidi="normal" text-decoration="none" transform="matrix(0.707107 -0.707107 0.707107 0.707107 3057.65 1420)">publishing</text></g><g clip-path="url(#clip25)"><text fill="#595959" fill-opacity="1" font-family="Calibri,Calibri_MSFontService,sans-serif" font-style="normal" font-variant="normal" font-weight="400" font-stretch="normal" font-size="41" text-anchor="start" direction="ltr" writing-mode="lr-tb" unicode-bidi="normal" text-decoration="none" transform="matrix(0.707107 -0.707107 0.707107 0.707107 3252.58 1430)">technology</text></g><g clip-path="url(#clip26)"><text fill="#595959" fill-opacity="1" font-family="Calibri,Calibri_MSFontService,sans-serif" font-style="normal" font-variant="normal" font-weight="400" font-stretch="normal" font-size="41" text-anchor="start" direction="ltr" writing-mode="lr-tb" unicode-bidi="normal" text-decoration="none" transform="matrix(0.707107 -0.707107 0.707107 0.707107 3500.92 1386)">theater</text></g><g clip-path="url(#clip27)"><text fill="#595959" fill-opacity="1" font-family="Calibri,Calibri_MSFontService,sans-serif" font-style="normal" font-variant="normal" font-weight="400" font-stretch="normal" font-size="64" text-anchor="start" direction="ltr" writing-mode="lr-tb" unicode-bidi="normal" text-decoration="none" transform="matrix(1 0 0 1 2499.04 234)">Parent Category Outcomes</text></g><g clip-path="url(#clip28)"><rect x="3754" y="688" width="22" height="23.0001" fill="#FFC000" fill-opacity="1"/></g><g clip-path="url(#clip29)"><text fill="#595959" fill-opacity="1" font-family="Calibri,Calibri_MSFontService,sans-serif" font-style="normal" font-variant="normal" font-weight="400" font-stretch="normal" font-size="41" text-anchor="start" direction="ltr" writing-mode="lr-tb" unicode-bidi="normal" text-decoration="none" transform="matrix(1 0 0 1 3785.88 709)">successful</text></g><g clip-path="url(#clip30)"><rect x="3754" y="765" width="22" height="23.0001" fill="#A5A5A5" fill-opacity="1"/></g><g clip-path="url(#clip31)"><text fill="#595959" fill-opacity="1" font-family="Calibri,Calibri_MSFontService,sans-serif" font-style="normal" font-variant="normal" font-weight="400" font-stretch="normal" font-size="41" text-anchor="start" direction="ltr" writing-mode="lr-tb" unicode-bidi="normal" text-decoration="none" transform="matrix(1 0 0 1 3785.88 787)">live</text></g><g clip-path="url(#clip32)"><rect x="3754" y="843" width="22" height="22" fill="#ED7D31" fill-opacity="1"/></g><g clip-path="url(#clip33)"><text fill="#595959" fill-opacity="1" font-family="Calibri,Calibri_MSFontService,sans-serif" font-style="normal" font-variant="normal" font-weight="400" font-stretch="normal" font-size="41" text-anchor="start" direction="ltr" writing-mode="lr-tb" unicode-bidi="normal" text-decoration="none" transform="matrix(1 0 0 1 3785.88 864)">failed</text></g><g clip-path="url(#clip34)"><rect x="3754" y="920" width="22" height="23.0001" fill="#4472C4" fill-opacity="1"/></g><g clip-path="url(#clip35)"><text fill="#595959" fill-opacity="1" font-family="Calibri,Calibri_MSFontService,sans-serif" font-style="normal" font-variant="normal" font-weight="400" font-stretch="normal" font-size="41" text-anchor="start" direction="ltr" writing-mode="lr-tb" unicode-bidi="normal" text-decoration="none" transform="matrix(1 0 0 1 3785.88 941)">canceled</text></g><rect x="1687.5" y="138.5" width="2321" height="1351" stroke="#D9D9D9" stroke-width="3.4375" stroke-linecap="butt" stroke-linejoin="round" stroke-miterlimit="10" stroke-opacity="1" fill="none"/></g></svg>