<svg width="3414" height="2475" xmlns="http://www.w3.org/2000/svg" xmlns:xlink="http://www.w3.org/1999/xlink" overflow="hidden"><defs><clipPath id="clip0"><rect x="1847" y="55" width="3414" height="2475"/></clipPath><clipPath id="clip1"><rect x="1848" y="56" width="3411" height="2468"/></clipPath><clipPath id="clip2"><rect x="1848" y="56" width="3411" height="2468"/></clipPath><clipPath id="clip3"><rect x="1979" y="106" width="2892" height="2315"/></clipPath><clipPath id="clip4"><rect x="1848" y="56" width="3411" height="2468"/></clipPath><clipPath id="clip5"><rect x="1979" y="106" width="2892" height="2315"/></clipPath><clipPath id="clip6"><rect x="1848" y="56" width="3411" height="2468"/></clipPath><clipPath id="clip7"><rect x="1979" y="106" width="2892" height="2315"/></clipPath><clipPath id="clip8"><rect x="1848" y="56" width="3411" height="2468"/></clipPath><clipPath id="clip9"><rect x="1979" y="106" width="2892" height="2315"/></clipPath><clipPath id="clip10"><rect x="1848" y="56" width="3411" height="2468"/></clipPath><clipPath id="clip11"><rect x="1848" y="56" width="3411" height="2468"/></clipPath><clipPath id="clip12"><rect x="1848" y="56" width="3411" height="2468"/></clipPath><clipPath id="clip13"><rect x="1848" y="56" width="3411" height="2468"/></clipPath><clipPath id="clip14"><rect x="1848" y="56" width="3411" height="2468"/></clipPath><clipPath id="clip15"><rect x="1848" y="56" width="3411" height="2468"/></clipPath><clipPath id="clip16"><rect x="1848" y="56" width="3411" height="2468"/></clipPath><clipPath id="clip17"><rect x="1848" y="56" width="3411" height="2468"/></clipPath><clipPath id="clip18"><rect x="1848" y="56" width="3411" height="2468"/></clipPath><clipPath id="clip19"><rect x="1848" y="56" width="3411" height="2468"/></clipPath><clipPath id="clip20"><rect x="1848" y="56" width="3411" height="2468"/></clipPath><clipPath id="clip21"><rect x="1848" y="56" width="3411" height="2468"/></clipPath><clipPath id="clip22"><rect x="1848" y="56" width="3411" height="2468"/></clipPath><clipPath id="clip23"><rect x="1848" y="56" width="3411" height="2468"/></clipPath><clipPath id="clip24"><rect x="1848" y="56" width="3411" height="2468"/></clipPath><clipPath id="clip25"><rect x="1848" y="56" width="3411" height="2468"/></clipPath><clipPath id="clip26"><rect x="1848" y="56" width="3411" height="2468"/></clipPath><clipPath id="clip27"><rect x="1848" y="56" width="3411" height="2468"/></clipPath><clipPath id="clip28"><rect x="1848" y="56" width="3411" height="2468"/></clipPath><clipPath id="clip29"><rect x="1848" y="56" width="3411" height="2468"/></clipPath><clipPath id="clip30"><rect x="1848" y="56" width="3411" height="2468"/></clipPath><clipPath id="clip31"><rect x="1848" y="56" width="3411" height="2468"/></clipPath><clipPath id="clip32"><rect x="1848" y="56" width="3411" height="2468"/></clipPath><clipPath id="clip33"><rect x="1848" y="56" width="3411" height="2468"/></clipPath><clipPath id="clip34"><rect x="1848" y="56" width="3411" height="2468"/></clipPath><clipPath id="clip35"><rect x="1848" y="56" width="3411" height="2468"/></clipPath><clipPath id="clip36"><rect x="1848" y="56" width="3411" height="2468"/></clipPath><clipPath id="clip37"><rect x="1848" y="56" width="3411" height="2468"/></clipPath><clipPath id="clip38"><rect x="1848" y="56" width="3411" height="2468"/></clipPath><clipPath id="clip39"><rect x="1848" y="56" width="3411" height="2468"/></clipPath><clipPath id="clip40"><rect x="1848" y="56" width="3411" height="2468"/></clipPath></defs><g clip-path="url(#clip0)" transform="translate(-1847 -55)"><rect x="1849" y="57.0001" width="3410" height="2468" fill="#FFFFFF" fill-opacity="1"/><g clip-path="url(#clip1)"><path d="M1979.5 1955.56 4867.5 1955.56M1979.5 1493.55 4867.5 1493.55M1979.5 1031.53 4867.5 1031.53M1979.5 569.519 4867.5 569.519M1979.5 106.5 4867.5 106.5" stroke="#D9D9D9" stroke-width="3.4375" stroke-linecap="butt" stroke-linejoin="round" stroke-miterlimit="10" stroke-opacity="1" fill="none" fill-rule="nonzero"/></g><g clip-path="url(#clip2)"><path d="M1979.5 2418.5 4867.5 2418.5" stroke="#D9D9D9" stroke-width="3.4375" stroke-linecap="butt" stroke-linejoin="round" stroke-miterlimit="10" stroke-opacity="1" fill="none" fill-rule="evenodd"/></g><g clip-path="url(#clip3)"><path d="M2100 2104.07 2340.08 2169.07 2581.08 2159.07 2822.09 2169.07 3062.1 2178.07 3303.11 2169.07 3544.12 2021 3785.12 2113.07 4025.13 2196.07 4266.14 2233 4507.15 2076.07 4748 2206.07" stroke="#4472C4" stroke-width="10.3125" stroke-linecap="round" stroke-linejoin="round" stroke-miterlimit="10" stroke-opacity="1" fill="none" fill-rule="nonzero"/></g><g clip-path="url(#clip4)"><path d="M2110.11 2103.03C2110.11 2109.1 2105.19 2114.03 2099.11 2114.03 2093.04 2114.03 2088.11 2109.1 2088.11 2103.03 2088.11 2096.95 2093.04 2092.03 2099.11 2092.03 2105.19 2092.03 2110.11 2096.95 2110.11 2103.03Z" stroke="#4472C4" stroke-width="3.4375" stroke-linecap="butt" stroke-linejoin="round" stroke-miterlimit="10" stroke-opacity="1" fill="#4472C4" fill-rule="nonzero" fill-opacity="1"/><path d="M2351.11 2168.03C2351.11 2174.1 2346.19 2179.03 2340.11 2179.03 2334.04 2179.03 2329.11 2174.1 2329.11 2168.03 2329.11 2161.95 2334.04 2157.03 2340.11 2157.03 2346.19 2157.03 2351.11 2161.95 2351.11 2168.03Z" stroke="#4472C4" stroke-width="3.4375" stroke-linecap="butt" stroke-linejoin="round" stroke-miterlimit="10" stroke-opacity="1" fill="#4472C4" fill-rule="nonzero" fill-opacity="1"/><path d="M2592.11 2159.03C2592.11 2165.1 2587.19 2170.03 2581.11 2170.03 2575.04 2170.03 2570.11 2165.1 2570.11 2159.03 2570.11 2152.95 2575.04 2148.03 2581.11 2148.03 2587.19 2148.03 2592.11 2152.95 2592.11 2159.03Z" stroke="#4472C4" stroke-width="3.4375" stroke-linecap="butt" stroke-linejoin="round" stroke-miterlimit="10" stroke-opacity="1" fill="#4472C4" fill-rule="nonzero" fill-opacity="1"/><path d="M2832.11 2168.03C2832.11 2174.1 2827.19 2179.03 2821.11 2179.03 2815.04 2179.03 2810.11 2174.1 2810.11 2168.03 2810.11 2161.95 2815.04 2157.03 2821.11 2157.03 2827.19 2157.03 2832.11 2161.95 2832.11 2168.03Z" stroke="#4472C4" stroke-width="3.4375" stroke-linecap="butt" stroke-linejoin="round" stroke-miterlimit="10" stroke-opacity="1" fill="#4472C4" fill-rule="nonzero" fill-opacity="1"/><path d="M3073.11 2177.03C3073.11 2183.1 3068.19 2188.03 3062.11 2188.03 3056.04 2188.03 3051.11 2183.1 3051.11 2177.03 3051.11 2170.95 3056.04 2166.03 3062.11 2166.03 3068.19 2166.03 3073.11 2170.95 3073.11 2177.03Z" stroke="#4472C4" stroke-width="3.4375" stroke-linecap="butt" stroke-linejoin="round" stroke-miterlimit="10" stroke-opacity="1" fill="#4472C4" fill-rule="nonzero" fill-opacity="1"/><path d="M3314.11 2168.03C3314.11 2174.1 3309.19 2179.03 3303.11 2179.03 3297.04 2179.03 3292.11 2174.1 3292.11 2168.03 3292.11 2161.95 3297.04 2157.03 3303.11 2157.03 3309.19 2157.03 3314.11 2161.95 3314.11 2168.03Z" stroke="#4472C4" stroke-width="3.4375" stroke-linecap="butt" stroke-linejoin="round" stroke-miterlimit="10" stroke-opacity="1" fill="#4472C4" fill-rule="nonzero" fill-opacity="1"/><path d="M3554.11 2020.03C3554.11 2026.1 3549.19 2031.03 3543.11 2031.03 3537.04 2031.03 3532.11 2026.1 3532.11 2020.03 3532.11 2013.95 3537.04 2009.03 3543.11 2009.03 3549.19 2009.03 3554.11 2013.95 3554.11 2020.03Z" stroke="#4472C4" stroke-width="3.4375" stroke-linecap="butt" stroke-linejoin="round" stroke-miterlimit="10" stroke-opacity="1" fill="#4472C4" fill-rule="nonzero" fill-opacity="1"/><path d="M3795.11 2113.03C3795.11 2119.1 3790.19 2124.03 3784.11 2124.03 3778.04 2124.03 3773.11 2119.1 3773.11 2113.03 3773.11 2106.95 3778.04 2102.03 3784.11 2102.03 3790.19 2102.03 3795.11 2106.95 3795.11 2113.03Z" stroke="#4472C4" stroke-width="3.4375" stroke-linecap="butt" stroke-linejoin="round" stroke-miterlimit="10" stroke-opacity="1" fill="#4472C4" fill-rule="nonzero" fill-opacity="1"/><path d="M4036.11 2196.03C4036.11 2202.1 4031.19 2207.03 4025.11 2207.03 4019.04 2207.03 4014.11 2202.1 4014.11 2196.03 4014.11 2189.95 4019.04 2185.03 4025.11 2185.03 4031.19 2185.03 4036.11 2189.95 4036.11 2196.03Z" stroke="#4472C4" stroke-width="3.4375" stroke-linecap="butt" stroke-linejoin="round" stroke-miterlimit="10" stroke-opacity="1" fill="#4472C4" fill-rule="nonzero" fill-opacity="1"/><path d="M4277.11 2233.03C4277.11 2239.1 4272.19 2244.03 4266.11 2244.03 4260.04 2244.03 4255.11 2239.1 4255.11 2233.03 4255.11 2226.95 4260.04 2222.03 4266.11 2222.03 4272.19 2222.03 4277.11 2226.95 4277.11 2233.03Z" stroke="#4472C4" stroke-width="3.4375" stroke-linecap="butt" stroke-linejoin="round" stroke-miterlimit="10" stroke-opacity="1" fill="#4472C4" fill-rule="nonzero" fill-opacity="1"/><path d="M4517.11 2076.03C4517.11 2082.1 4512.19 2087.03 4506.11 2087.03 4500.04 2087.03 4495.11 2082.1 4495.11 2076.03 4495.11 2069.95 4500.04 2065.03 4506.11 2065.03 4512.19 2065.03 4517.11 2069.95 4517.11 2076.03Z" stroke="#4472C4" stroke-width="3.4375" stroke-linecap="butt" stroke-linejoin="round" stroke-miterlimit="10" stroke-opacity="1" fill="#4472C4" fill-rule="nonzero" fill-opacity="1"/><path d="M4758.11 2205.03C4758.11 2211.1 4753.19 2216.03 4747.11 2216.03 4741.04 2216.03 4736.11 2211.1 4736.11 2205.03 4736.11 2198.95 4741.04 2194.03 4747.11 2194.03 4753.19 2194.03 4758.11 2198.95 4758.11 2205.03Z" stroke="#4472C4" stroke-width="3.4375" stroke-linecap="butt" stroke-linejoin="round" stroke-miterlimit="10" stroke-opacity="1" fill="#4472C4" fill-rule="nonzero" fill-opacity="1"/></g><g clip-path="url(#clip5)"><path d="M2100 1041.03 2340.08 1438.05 2581.08 1420.05 2822.09 1475 3062.1 1253.04 3303.11 1059.03 3544.12 1031 3785.12 1179.04 4025.13 1244.04 4266.14 1041.03 4507.15 1364.04 4748 1327.04" stroke="#ED7D31" stroke-width="10.3125" stroke-linecap="round" stroke-linejoin="round" stroke-miterlimit="10" stroke-opacity="1" fill="none" fill-rule="nonzero"/></g><g clip-path="url(#clip6)"><path d="M2110.11 1040.03C2110.11 1046.1 2105.19 1051.03 2099.11 1051.03 2093.04 1051.03 2088.11 1046.1 2088.11 1040.03 2088.11 1033.95 2093.04 1029.03 2099.11 1029.03 2105.19 1029.03 2110.11 1033.95 2110.11 1040.03Z" stroke="#ED7D31" stroke-width="3.4375" stroke-linecap="butt" stroke-linejoin="round" stroke-miterlimit="10" stroke-opacity="1" fill="#ED7D31" fill-rule="nonzero" fill-opacity="1"/><path d="M2351.11 1438.03C2351.11 1444.1 2346.19 1449.03 2340.11 1449.03 2334.04 1449.03 2329.11 1444.1 2329.11 1438.03 2329.11 1431.95 2334.04 1427.03 2340.11 1427.03 2346.19 1427.03 2351.11 1431.95 2351.11 1438.03Z" stroke="#ED7D31" stroke-width="3.4375" stroke-linecap="butt" stroke-linejoin="round" stroke-miterlimit="10" stroke-opacity="1" fill="#ED7D31" fill-rule="nonzero" fill-opacity="1"/><path d="M2592.11 1419.03C2592.11 1425.1 2587.19 1430.03 2581.11 1430.03 2575.04 1430.03 2570.11 1425.1 2570.11 1419.03 2570.11 1412.95 2575.04 1408.03 2581.11 1408.03 2587.19 1408.03 2592.11 1412.95 2592.11 1419.03Z" stroke="#ED7D31" stroke-width="3.4375" stroke-linecap="butt" stroke-linejoin="round" stroke-miterlimit="10" stroke-opacity="1" fill="#ED7D31" fill-rule="nonzero" fill-opacity="1"/><path d="M2832.11 1475.03C2832.11 1481.1 2827.19 1486.03 2821.11 1486.03 2815.04 1486.03 2810.11 1481.1 2810.11 1475.03 2810.11 1468.95 2815.04 1464.03 2821.11 1464.03 2827.19 1464.03 2832.11 1468.95 2832.11 1475.03Z" stroke="#ED7D31" stroke-width="3.4375" stroke-linecap="butt" stroke-linejoin="round" stroke-miterlimit="10" stroke-opacity="1" fill="#ED7D31" fill-rule="nonzero" fill-opacity="1"/><path d="M3073.11 1253.03C3073.11 1259.1 3068.19 1264.03 3062.11 1264.03 3056.04 1264.03 3051.11 1259.1 3051.11 1253.03 3051.11 1246.95 3056.04 1242.03 3062.11 1242.03 3068.19 1242.03 3073.11 1246.95 3073.11 1253.03Z" stroke="#ED7D31" stroke-width="3.4375" stroke-linecap="butt" stroke-linejoin="round" stroke-miterlimit="10" stroke-opacity="1" fill="#ED7D31" fill-rule="nonzero" fill-opacity="1"/><path d="M3314.11 1059.03C3314.11 1065.1 3309.19 1070.03 3303.11 1070.03 3297.04 1070.03 3292.11 1065.1 3292.11 1059.03 3292.11 1052.95 3297.04 1048.03 3303.11 1048.03 3309.19 1048.03 3314.11 1052.95 3314.11 1059.03Z" stroke="#ED7D31" stroke-width="3.4375" stroke-linecap="butt" stroke-linejoin="round" stroke-miterlimit="10" stroke-opacity="1" fill="#ED7D31" fill-rule="nonzero" fill-opacity="1"/><path d="M3554.11 1031.03C3554.11 1037.1 3549.19 1042.03 3543.11 1042.03 3537.04 1042.03 3532.11 1037.1 3532.11 1031.03 3532.11 1024.95 3537.04 1020.03 3543.11 1020.03 3549.19 1020.03 3554.11 1024.95 3554.11 1031.03Z" stroke="#ED7D31" stroke-width="3.4375" stroke-linecap="butt" stroke-linejoin="round" stroke-miterlimit="10" stroke-opacity="1" fill="#ED7D31" fill-rule="nonzero" fill-opacity="1"/><path d="M3795.11 1179.03C3795.11 1185.1 3790.19 1190.03 3784.11 1190.03 3778.04 1190.03 3773.11 1185.1 3773.11 1179.03 3773.11 1172.95 3778.04 1168.03 3784.11 1168.03 3790.19 1168.03 3795.11 1172.95 3795.11 1179.03Z" stroke="#ED7D31" stroke-width="3.4375" stroke-linecap="butt" stroke-linejoin="round" stroke-miterlimit="10" stroke-opacity="1" fill="#ED7D31" fill-rule="nonzero" fill-opacity="1"/><path d="M4036.11 1244.03C4036.11 1250.1 4031.19 1255.03 4025.11 1255.03 4019.04 1255.03 4014.11 1250.1 4014.11 1244.03 4014.11 1237.95 4019.04 1233.03 4025.11 1233.03 4031.19 1233.03 4036.11 1237.95 4036.11 1244.03Z" stroke="#ED7D31" stroke-width="3.4375" stroke-linecap="butt" stroke-linejoin="round" stroke-miterlimit="10" stroke-opacity="1" fill="#ED7D31" fill-rule="nonzero" fill-opacity="1"/><path d="M4277.11 1040.03C4277.11 1046.1 4272.19 1051.03 4266.11 1051.03 4260.04 1051.03 4255.11 1046.1 4255.11 1040.03 4255.11 1033.95 4260.04 1029.03 4266.11 1029.03 4272.19 1029.03 4277.11 1033.95 4277.11 1040.03Z" stroke="#ED7D31" stroke-width="3.4375" stroke-linecap="butt" stroke-linejoin="round" stroke-miterlimit="10" stroke-opacity="1" fill="#ED7D31" fill-rule="nonzero" fill-opacity="1"/><path d="M4517.11 1364.03C4517.11 1370.1 4512.19 1375.03 4506.11 1375.03 4500.04 1375.03 4495.11 1370.1 4495.11 1364.03 4495.11 1357.95 4500.04 1353.03 4506.11 1353.03 4512.19 1353.03 4517.11 1357.95 4517.11 1364.03Z" stroke="#ED7D31" stroke-width="3.4375" stroke-linecap="butt" stroke-linejoin="round" stroke-miterlimit="10" stroke-opacity="1" fill="#ED7D31" fill-rule="nonzero" fill-opacity="1"/><path d="M4758.11 1327.03C4758.11 1333.1 4753.19 1338.03 4747.11 1338.03 4741.04 1338.03 4736.11 1333.1 4736.11 1327.03 4736.11 1320.95 4741.04 1316.03 4747.11 1316.03 4753.19 1316.03 4758.11 1320.95 4758.11 1327.03Z" stroke="#ED7D31" stroke-width="3.4375" stroke-linecap="butt" stroke-linejoin="round" stroke-miterlimit="10" stroke-opacity="1" fill="#ED7D31" fill-rule="nonzero" fill-opacity="1"/></g><g clip-path="url(#clip7)"><path d="M2100 2400 2340.08 2252.07 2581 2141" stroke="#A5A5A5" stroke-width="10.3125" stroke-linecap="round" stroke-linejoin="round" stroke-miterlimit="10" stroke-opacity="1" fill="none" fill-rule="nonzero"/></g><g clip-path="url(#clip8)"><path d="M2110.11 2399.03C2110.11 2405.1 2105.19 2410.03 2099.11 2410.03 2093.04 2410.03 2088.11 2405.1 2088.11 2399.03 2088.11 2392.95 2093.04 2388.03 2099.11 2388.03 2105.19 2388.03 2110.11 2392.95 2110.11 2399.03Z" stroke="#A5A5A5" stroke-width="3.4375" stroke-linecap="butt" stroke-linejoin="round" stroke-miterlimit="10" stroke-opacity="1" fill="#A5A5A5" fill-rule="nonzero" fill-opacity="1"/><path d="M2351.11 2251.03C2351.11 2257.1 2346.19 2262.03 2340.11 2262.03 2334.04 2262.03 2329.11 2257.1 2329.11 2251.03 2329.11 2244.95 2334.04 2240.03 2340.11 2240.03 2346.19 2240.03 2351.11 2244.95 2351.11 2251.03Z" stroke="#A5A5A5" stroke-width="3.4375" stroke-linecap="butt" stroke-linejoin="round" stroke-miterlimit="10" stroke-opacity="1" fill="#A5A5A5" fill-rule="nonzero" fill-opacity="1"/><path d="M2592.11 2140.03C2592.11 2146.1 2587.19 2151.03 2581.11 2151.03 2575.04 2151.03 2570.11 2146.1 2570.11 2140.03 2570.11 2133.95 2575.04 2129.03 2581.11 2129.03 2587.19 2129.03 2592.11 2133.95 2592.11 2140.03Z" stroke="#A5A5A5" stroke-width="3.4375" stroke-linecap="butt" stroke-linejoin="round" stroke-miterlimit="10" stroke-opacity="1" fill="#A5A5A5" fill-rule="nonzero" fill-opacity="1"/></g><g clip-path="url(#clip9)"><path d="M2100 736.024 2340.08 551.018 2581.08 754.025 2822.09 643.021 3062.1 255 3303.11 468.015 3544.12 625.021 3785.12 884.029 4025.13 1059.03 4266.14 726.024 4507.15 726.024 4748 1392" stroke="#FFC000" stroke-width="10.3125" stroke-linecap="round" stroke-linejoin="round" stroke-miterlimit="10" stroke-opacity="1" fill="none" fill-rule="nonzero"/></g><g clip-path="url(#clip10)"><path d="M2110.11 735.027C2110.11 741.102 2105.19 746.027 2099.11 746.027 2093.04 746.027 2088.11 741.102 2088.11 735.027 2088.11 728.952 2093.04 724.028 2099.11 724.028 2105.19 724.028 2110.11 728.952 2110.11 735.027Z" stroke="#FFC000" stroke-width="3.4375" stroke-linecap="butt" stroke-linejoin="round" stroke-miterlimit="10" stroke-opacity="1" fill="#FFC000" fill-rule="nonzero" fill-opacity="1"/><path d="M2351.11 550.027C2351.11 556.102 2346.19 561.027 2340.11 561.027 2334.04 561.027 2329.11 556.102 2329.11 550.027 2329.11 543.953 2334.04 539.028 2340.11 539.028 2346.19 539.028 2351.11 543.953 2351.11 550.027Z" stroke="#FFC000" stroke-width="3.4375" stroke-linecap="butt" stroke-linejoin="round" stroke-miterlimit="10" stroke-opacity="1" fill="#FFC000" fill-rule="nonzero" fill-opacity="1"/><path d="M2592.11 754.027C2592.11 760.102 2587.19 765.027 2581.11 765.027 2575.04 765.027 2570.11 760.102 2570.11 754.027 2570.11 747.952 2575.04 743.028 2581.11 743.028 2587.19 743.028 2592.11 747.952 2592.11 754.027Z" stroke="#FFC000" stroke-width="3.4375" stroke-linecap="butt" stroke-linejoin="round" stroke-miterlimit="10" stroke-opacity="1" fill="#FFC000" fill-rule="nonzero" fill-opacity="1"/><path d="M2832.11 643.027C2832.11 649.102 2827.19 654.027 2821.11 654.027 2815.04 654.027 2810.11 649.102 2810.11 643.027 2810.11 636.952 2815.04 632.028 2821.11 632.028 2827.19 632.028 2832.11 636.952 2832.11 643.027Z" stroke="#FFC000" stroke-width="3.4375" stroke-linecap="butt" stroke-linejoin="round" stroke-miterlimit="10" stroke-opacity="1" fill="#FFC000" fill-rule="nonzero" fill-opacity="1"/><path d="M3073.11 254.027C3073.11 260.102 3068.19 265.027 3062.11 265.027 3056.04 265.027 3051.11 260.102 3051.11 254.027 3051.11 247.952 3056.04 243.027 3062.11 243.027 3068.19 243.027 3073.11 247.952 3073.11 254.027Z" stroke="#FFC000" stroke-width="3.4375" stroke-linecap="butt" stroke-linejoin="round" stroke-miterlimit="10" stroke-opacity="1" fill="#FFC000" fill-rule="nonzero" fill-opacity="1"/><path d="M3314.11 467.027C3314.11 473.102 3309.19 478.027 3303.11 478.027 3297.04 478.027 3292.11 473.102 3292.11 467.027 3292.11 460.952 3297.04 456.028 3303.11 456.028 3309.19 456.028 3314.11 460.952 3314.11 467.027Z" stroke="#FFC000" stroke-width="3.4375" stroke-linecap="butt" stroke-linejoin="round" stroke-miterlimit="10" stroke-opacity="1" fill="#FFC000" fill-rule="nonzero" fill-opacity="1"/><path d="M3554.11 624.027C3554.11 630.102 3549.19 635.027 3543.11 635.027 3537.04 635.027 3532.11 630.102 3532.11 624.027 3532.11 617.952 3537.04 613.028 3543.11 613.028 3549.19 613.028 3554.11 617.952 3554.11 624.027Z" stroke="#FFC000" stroke-width="3.4375" stroke-linecap="butt" stroke-linejoin="round" stroke-miterlimit="10" stroke-opacity="1" fill="#FFC000" fill-rule="nonzero" fill-opacity="1"/><path d="M3795.11 883.027C3795.11 889.102 3790.19 894.027 3784.11 894.027 3778.04 894.027 3773.11 889.102 3773.11 883.027 3773.11 876.952 3778.04 872.028 3784.11 872.028 3790.19 872.028 3795.11 876.952 3795.11 883.027Z" stroke="#FFC000" stroke-width="3.4375" stroke-linecap="butt" stroke-linejoin="round" stroke-miterlimit="10" stroke-opacity="1" fill="#FFC000" fill-rule="nonzero" fill-opacity="1"/><path d="M4036.11 1059.03C4036.11 1065.1 4031.19 1070.03 4025.11 1070.03 4019.04 1070.03 4014.11 1065.1 4014.11 1059.03 4014.11 1052.95 4019.04 1048.03 4025.11 1048.03 4031.19 1048.03 4036.11 1052.95 4036.11 1059.03Z" stroke="#FFC000" stroke-width="3.4375" stroke-linecap="butt" stroke-linejoin="round" stroke-miterlimit="10" stroke-opacity="1" fill="#FFC000" fill-rule="nonzero" fill-opacity="1"/><path d="M4277.11 726.027C4277.11 732.102 4272.19 737.027 4266.11 737.027 4260.04 737.027 4255.11 732.102 4255.11 726.027 4255.11 719.953 4260.04 715.028 4266.11 715.028 4272.19 715.028 4277.11 719.953 4277.11 726.027Z" stroke="#FFC000" stroke-width="3.4375" stroke-linecap="butt" stroke-linejoin="round" stroke-miterlimit="10" stroke-opacity="1" fill="#FFC000" fill-rule="nonzero" fill-opacity="1"/><path d="M4517.11 726.027C4517.11 732.102 4512.19 737.027 4506.11 737.027 4500.04 737.027 4495.11 732.102 4495.11 726.027 4495.11 719.953 4500.04 715.028 4506.11 715.028 4512.19 715.028 4517.11 719.953 4517.11 726.027Z" stroke="#FFC000" stroke-width="3.4375" stroke-linecap="butt" stroke-linejoin="round" stroke-miterlimit="10" stroke-opacity="1" fill="#FFC000" fill-rule="nonzero" fill-opacity="1"/><path d="M4758.11 1392.03C4758.11 1398.1 4753.19 1403.03 4747.11 1403.03 4741.04 1403.03 4736.11 1398.1 4736.11 1392.03 4736.11 1385.95 4741.04 1381.03 4747.11 1381.03 4753.19 1381.03 4758.11 1385.95 4758.11 1392.03Z" stroke="#FFC000" stroke-width="3.4375" stroke-linecap="butt" stroke-linejoin="round" stroke-miterlimit="10" stroke-opacity="1" fill="#FFC000" fill-rule="nonzero" fill-opacity="1"/></g><g clip-path="url(#clip11)"><text fill="#595959" fill-opacity="1" font-family="Calibri,Calibri_MSFontService,sans-serif" font-style="normal" font-variant="normal" font-weight="400" font-stretch="normal" font-size="41" text-anchor="start" direction="ltr" writing-mode="lr-tb" unicode-bidi="normal" text-decoration="none" transform="matrix(1 0 0 1 1920.2 2428)">0</text></g><g clip-path="url(#clip12)"><text fill="#595959" fill-opacity="1" font-family="Calibri,Calibri_MSFontService,sans-serif" font-style="normal" font-variant="normal" font-weight="400" font-stretch="normal" font-size="41" text-anchor="start" direction="ltr" writing-mode="lr-tb" unicode-bidi="normal" text-decoration="none" transform="matrix(1 0 0 1 1899.3 1966)">50</text></g><g clip-path="url(#clip13)"><text fill="#595959" fill-opacity="1" font-family="Calibri,Calibri_MSFontService,sans-serif" font-style="normal" font-variant="normal" font-weight="400" font-stretch="normal" font-size="41" text-anchor="start" direction="ltr" writing-mode="lr-tb" unicode-bidi="normal" text-decoration="none" transform="matrix(1 0 0 1 1878.4 1504)">100</text></g><g clip-path="url(#clip14)"><text fill="#595959" fill-opacity="1" font-family="Calibri,Calibri_MSFontService,sans-serif" font-style="normal" font-variant="normal" font-weight="400" font-stretch="normal" font-size="41" text-anchor="start" direction="ltr" writing-mode="lr-tb" unicode-bidi="normal" text-decoration="none" transform="matrix(1 0 0 1 1878.4 1042)">150</text></g><g clip-path="url(#clip15)"><text fill="#595959" fill-opacity="1" font-family="Calibri,Calibri_MSFontService,sans-serif" font-style="normal" font-variant="normal" font-weight="400" font-stretch="normal" font-size="41" text-anchor="start" direction="ltr" writing-mode="lr-tb" unicode-bidi="normal" text-decoration="none" transform="matrix(1 0 0 1 1878.4 579)">200</text></g><g clip-path="url(#clip16)"><text fill="#595959" fill-opacity="1" font-family="Calibri,Calibri_MSFontService,sans-serif" font-style="normal" font-variant="normal" font-weight="400" font-stretch="normal" font-size="41" text-anchor="start" direction="ltr" writing-mode="lr-tb" unicode-bidi="normal" text-decoration="none" transform="matrix(1 0 0 1 1878.4 117)">250</text></g><g clip-path="url(#clip17)"><text fill="#595959" fill-opacity="1" font-family="Calibri,Calibri_MSFontService,sans-serif" font-style="normal" font-variant="normal" font-weight="400" font-stretch="normal" font-size="41" text-anchor="start" direction="ltr" writing-mode="lr-tb" unicode-bidi="normal" text-decoration="none" transform="matrix(1 0 0 1 2072.43 2484)">Jan</text></g><g clip-path="url(#clip18)"><text fill="#595959" fill-opacity="1" font-family="Calibri,Calibri_MSFontService,sans-serif" font-style="normal" font-variant="normal" font-weight="400" font-stretch="normal" font-size="41" text-anchor="start" direction="ltr" writing-mode="lr-tb" unicode-bidi="normal" text-decoration="none" transform="matrix(1 0 0 1 2309.85 2484)">Feb</text></g><g clip-path="url(#clip19)"><text fill="#595959" fill-opacity="1" font-family="Calibri,Calibri_MSFontService,sans-serif" font-style="normal" font-variant="normal" font-weight="400" font-stretch="normal" font-size="41" text-anchor="start" direction="ltr" writing-mode="lr-tb" unicode-bidi="normal" text-decoration="none" transform="matrix(1 0 0 1 2546.43 2484)">Mar</text></g><g clip-path="url(#clip20)"><text fill="#595959" fill-opacity="1" font-family="Calibri,Calibri_MSFontService,sans-serif" font-style="normal" font-variant="normal" font-weight="400" font-stretch="normal" font-size="41" text-anchor="start" direction="ltr" writing-mode="lr-tb" unicode-bidi="normal" text-decoration="none" transform="matrix(1 0 0 1 2791.87 2484)">Apr</text></g><g clip-path="url(#clip21)"><text fill="#595959" fill-opacity="1" font-family="Calibri,Calibri_MSFontService,sans-serif" font-style="normal" font-variant="normal" font-weight="400" font-stretch="normal" font-size="41" text-anchor="start" direction="ltr" writing-mode="lr-tb" unicode-bidi="normal" text-decoration="none" transform="matrix(1 0 0 1 3025.71 2484)">May</text></g><g clip-path="url(#clip22)"><text fill="#595959" fill-opacity="1" font-family="Calibri,Calibri_MSFontService,sans-serif" font-style="normal" font-variant="normal" font-weight="400" font-stretch="normal" font-size="41" text-anchor="start" direction="ltr" writing-mode="lr-tb" unicode-bidi="normal" text-decoration="none" transform="matrix(1 0 0 1 3275.01 2484)">Jun</text></g><g clip-path="url(#clip23)"><text fill="#595959" fill-opacity="1" font-family="Calibri,Calibri_MSFontService,sans-serif" font-style="normal" font-variant="normal" font-weight="400" font-stretch="normal" font-size="41" text-anchor="start" direction="ltr" writing-mode="lr-tb" unicode-bidi="normal" text-decoration="none" transform="matrix(1 0 0 1 3521.82 2484)">Jul</text></g><g clip-path="url(#clip24)"><text fill="#595959" fill-opacity="1" font-family="Calibri,Calibri_MSFontService,sans-serif" font-style="normal" font-variant="normal" font-weight="400" font-stretch="normal" font-size="41" text-anchor="start" direction="ltr" writing-mode="lr-tb" unicode-bidi="normal" text-decoration="none" transform="matrix(1 0 0 1 3752.2 2484)">Aug</text></g><g clip-path="url(#clip25)"><text fill="#595959" fill-opacity="1" font-family="Calibri,Calibri_MSFontService,sans-serif" font-style="normal" font-variant="normal" font-weight="400" font-stretch="normal" font-size="41" text-anchor="start" direction="ltr" writing-mode="lr-tb" unicode-bidi="normal" text-decoration="none" transform="matrix(1 0 0 1 3994.8 2484)">Sep</text></g><g clip-path="url(#clip26)"><text fill="#595959" fill-opacity="1" font-family="Calibri,Calibri_MSFontService,sans-serif" font-style="normal" font-variant="normal" font-weight="400" font-stretch="normal" font-size="41" text-anchor="start" direction="ltr" writing-mode="lr-tb" unicode-bidi="normal" text-decoration="none" transform="matrix(1 0 0 1 4236.81 2484)">Oct</text></g><g clip-path="url(#clip27)"><text fill="#595959" fill-opacity="1" font-family="Calibri,Calibri_MSFontService,sans-serif" font-style="normal" font-variant="normal" font-weight="400" font-stretch="normal" font-size="41" text-anchor="start" direction="ltr" writing-mode="lr-tb" unicode-bidi="normal" text-decoration="none" transform="matrix(1 0 0 1 4473.3 2484)">Nov</text></g><g clip-path="url(#clip28)"><text fill="#595959" fill-opacity="1" font-family="Calibri,Calibri_MSFontService,sans-serif" font-style="normal" font-variant="normal" font-weight="400" font-stretch="normal" font-size="41" text-anchor="start" direction="ltr" writing-mode="lr-tb" unicode-bidi="normal" text-decoration="none" transform="matrix(1 0 0 1 4715.84 2484)">Dec</text></g><g clip-path="url(#clip29)"><path d="M4940 1176 5028 1176" stroke="#4472C4" stroke-width="10.3125" stroke-linecap="round" stroke-linejoin="round" stroke-miterlimit="10" stroke-opacity="1" fill="none" fill-rule="evenodd"/></g><g clip-path="url(#clip30)"><path d="M4994.02 1176C4994.02 1182.07 4989.31 1187 4983.5 1187 4977.69 1187 4972.98 1182.07 4972.98 1176 4972.98 1169.92 4977.69 1165 4983.5 1165 4989.31 1165 4994.02 1169.92 4994.02 1176Z" stroke="#4472C4" stroke-width="3.4375" stroke-linecap="butt" stroke-linejoin="round" stroke-miterlimit="10" stroke-opacity="1" fill="#4472C4" fill-rule="nonzero" fill-opacity="1"/></g><g clip-path="url(#clip31)"><text fill="#595959" fill-opacity="1" font-family="Calibri,Calibri_MSFontService,sans-serif" font-style="normal" font-variant="normal" font-weight="400" font-stretch="normal" font-size="41" text-anchor="start" direction="ltr" writing-mode="lr-tb" unicode-bidi="normal" text-decoration="none" transform="matrix(1 0 0 1 5036.88 1186)">canceled</text></g><g clip-path="url(#clip32)"><path d="M4940 1254 5028 1254" stroke="#ED7D31" stroke-width="10.3125" stroke-linecap="round" stroke-linejoin="round" stroke-miterlimit="10" stroke-opacity="1" fill="none" fill-rule="evenodd"/></g><g clip-path="url(#clip33)"><path d="M4994.02 1253C4994.02 1259.07 4989.31 1264 4983.5 1264 4977.69 1264 4972.98 1259.07 4972.98 1253 4972.98 1246.92 4977.69 1242 4983.5 1242 4989.31 1242 4994.02 1246.92 4994.02 1253Z" stroke="#ED7D31" stroke-width="3.4375" stroke-linecap="butt" stroke-linejoin="round" stroke-miterlimit="10" stroke-opacity="1" fill="#ED7D31" fill-rule="nonzero" fill-opacity="1"/></g><g clip-path="url(#clip34)"><text fill="#595959" fill-opacity="1" font-family="Calibri,Calibri_MSFontService,sans-serif" font-style="normal" font-variant="normal" font-weight="400" font-stretch="normal" font-size="41" text-anchor="start" direction="ltr" writing-mode="lr-tb" unicode-bidi="normal" text-decoration="none" transform="matrix(1 0 0 1 5036.88 1264)">failed</text></g><g clip-path="url(#clip35)"><path d="M4940 1331 5028 1331" stroke="#A5A5A5" stroke-width="10.3125" stroke-linecap="round" stroke-linejoin="round" stroke-miterlimit="10" stroke-opacity="1" fill="none" fill-rule="evenodd"/></g><g clip-path="url(#clip36)"><path d="M4994.02 1330C4994.02 1336.07 4989.31 1341 4983.5 1341 4977.69 1341 4972.98 1336.07 4972.98 1330 4972.98 1323.92 4977.69 1319 4983.5 1319 4989.31 1319 4994.02 1323.92 4994.02 1330Z" stroke="#A5A5A5" stroke-width="3.4375" stroke-linecap="butt" stroke-linejoin="round" stroke-miterlimit="10" stroke-opacity="1" fill="#A5A5A5" fill-rule="nonzero" fill-opacity="1"/></g><g clip-path="url(#clip37)"><text fill="#595959" fill-opacity="1" font-family="Calibri,Calibri_MSFontService,sans-serif" font-style="normal" font-variant="normal" font-weight="400" font-stretch="normal" font-size="41" text-anchor="start" direction="ltr" writing-mode="lr-tb" unicode-bidi="normal" text-decoration="none" transform="matrix(1 0 0 1 5036.88 1341)">live</text></g><g clip-path="url(#clip38)"><path d="M4940 1408 5028 1408" stroke="#FFC000" stroke-width="10.3125" stroke-linecap="round" stroke-linejoin="round" stroke-miterlimit="10" stroke-opacity="1" fill="none" fill-rule="evenodd"/></g><g clip-path="url(#clip39)"><path d="M4994.02 1408.5C4994.02 1414.31 4989.31 1419.02 4983.5 1419.02 4977.69 1419.02 4972.98 1414.31 4972.98 1408.5 4972.98 1402.69 4977.69 1397.98 4983.5 1397.98 4989.31 1397.98 4994.02 1402.69 4994.02 1408.5Z" stroke="#FFC000" stroke-width="3.4375" stroke-linecap="butt" stroke-linejoin="round" stroke-miterlimit="10" stroke-opacity="1" fill="#FFC000" fill-rule="nonzero" fill-opacity="1"/></g><g clip-path="url(#clip40)"><text fill="#595959" fill-opacity="1" font-family="Calibri,Calibri_MSFontService,sans-serif" font-style="normal" font-variant="normal" font-weight="400" font-stretch="normal" font-size="41" text-anchor="start" direction="ltr" writing-mode="lr-tb" unicode-bidi="normal" text-decoration="none" transform="matrix(1 0 0 1 5036.88 1418)">successful</text></g><rect x="1849.5" y="57.4999" width="3410" height="2468" stroke="#D9D9D9" stroke-width="3.4375" stroke-linecap="butt" stroke-linejoin="round" stroke-miterlimit="10" stroke-opacity="1" fill="none"/></g></svg>